<?xml version="1.0" encoding="utf-8"?>
<!-- Generator: Adobe Illustrator 23.0.0, SVG Export Plug-In . SVG Version: 6.00 Build 0)  -->
<svg version="1.1" id="图层_1" xmlns="http://www.w3.org/2000/svg" xmlns:xlink="http://www.w3.org/1999/xlink" x="0px" y="0px"
	 viewBox="0 0 50 50" style="enable-background:new 0 0 50 50;" xml:space="preserve">
<style type="text/css">
	.st0{fill:url(#SVGID_1_);}
	.st1{fill:#FFF5D4;}
</style>
<linearGradient id="SVGID_1_" gradientUnits="userSpaceOnUse" x1="25" y1="52" x2="25" y2="2" gradientTransform="matrix(1 0 0 -1 0 52)">
	<stop  offset="0" style="stop-color:#E2C379"/>
	<stop  offset="0.505" style="stop-color:#2B1C0A"/>
	<stop  offset="1" style="stop-color:#655448"/>
</linearGradient>
<path class="st0" d="M3.1,0H47c1.6,0,3,1.4,3,3.1V47c0,1.7-1.4,3.1-3.1,3.1H3.1C1.4,50,0,48.6,0,46.9V3.1C0,1.4,1.4,0,3.1,0z"/>
<title>ic_app</title>
<path class="st1" d="M14.1,12.6c0-1.1,0.9-2.1,2.1-2.1H32c1.1,0,2.1,0.9,2.1,2.1v3.6h1.6v-3.6c0-2-1.6-3.6-3.7-3.6H16.2
	c-2,0-3.6,1.6-3.6,3.6v3.6h1.6L14.1,12.6z"/>
<path class="st1" d="M34.1,33.4h-20V30h-1.6v8.3c0,2,1.6,3.7,3.6,3.7c0,0,0,0,0,0H32c2,0,3.6-1.6,3.7-3.7V30h-1.6V33.4z M32.1,40.4
	H16.2c-1.1,0-2.1-0.9-2.1-2.1v-3.4h20v3.4C34.1,39.5,33.2,40.4,32.1,40.4z"/>
<path class="st1" d="M17.5,26.4l0.9,2.5h1.9l-4-10.6h-1.7l-4,10.6h1.9l0.9-2.5H17.5z M15.4,20.6L17,25h-3.1L15.4,20.6z"/>
<path class="st1" d="M25.3,18.3h-4.1v10.6h1.8V25h2.2c1,0.1,2-0.2,2.9-0.9c0.7-0.6,1.1-1.5,1-2.4c0-0.9-0.3-1.8-1-2.5
	C27.3,18.6,26.3,18.2,25.3,18.3z M26.8,23c-0.4,0.3-1,0.5-1.5,0.5h-2.2v-3.7h2.3c0.5,0,1,0.2,1.4,0.5c0.4,0.4,0.6,0.9,0.5,1.4
	C27.3,22.2,27.1,22.7,26.8,23z"/>
<path class="st1" d="M37.4,19.2c-0.8-0.6-1.8-1-2.8-0.9h-4.1v10.6h1.8V25h2.2c1,0.1,2-0.2,2.9-0.9c0.7-0.6,1.1-1.5,1-2.4
	C38.5,20.8,38.1,19.9,37.4,19.2z M36.1,23c-0.4,0.3-1,0.5-1.5,0.5h-2.2v-3.7h2.3c0.5,0,1,0.2,1.4,0.5c0.4,0.4,0.6,0.9,0.5,1.4
	C36.6,22.2,36.4,22.7,36.1,23z"/>
</svg>
