<?xml version="1.0" standalone="no"?><!DOCTYPE svg PUBLIC "-//W3C//DTD SVG 1.1//EN" "http://www.w3.org/Graphics/SVG/1.1/DTD/svg11.dtd"><svg class="icon" width="200px" height="200.00px" viewBox="0 0 1024 1024" version="1.1" xmlns="http://www.w3.org/2000/svg"><path fill="#ffffff" d="M512 0 0.9216 526.9504l0.136533 0 43.963733 0L159.402667 526.9504l0 464.349867L159.402667 1024l32.733867 0 197.085867 0 32.733867 0 0-214.698667 182.749867 0L604.706133 1024l30.071467 0 2.6624 0 194.389333 0 32.733867 0 0-32.733867L864.5632 526.9504l114.3808 0 41.335467 0 2.798933 0L512 0zM831.863467 494.216533l0 32.733867 0 464.349867-194.389333 0 0-212.855467-2.6624 0 0-1.8432-245.589333 0 0 32.733867 0.034133 0 0 181.9648L192.136533 991.300267 192.136533 526.9504l0-32.733867L76.8 494.216533 512 45.499733l435.2 448.7168L831.863467 494.216533z" /></svg>