<?xml version="1.0" standalone="no"?><!DOCTYPE svg PUBLIC "-//W3C//DTD SVG 1.1//EN" "http://www.w3.org/Graphics/SVG/1.1/DTD/svg11.dtd"><svg class="icon" width="200px" height="200.00px" viewBox="0 0 1024 1024" version="1.1" xmlns="http://www.w3.org/2000/svg"><path fill="#ffffff" d="M531.237734 512.051164l0 115.733387 192.888978 0c10.64215 0 19.237734 8.697911 19.237734 19.237734s-8.697911 19.237734-19.237734 19.237734L531.237734 666.260018 531.237734 839.808934c0 10.64215-8.697911 19.237734-19.237734 19.237734s-19.237734-8.697911-19.237734-19.237734L492.762266 666.260018 299.873289 666.260018c-10.64215 0-19.237734-8.697911-19.237734-19.237734s8.697911-19.237734 19.237734-19.237734l192.888978 0L492.762266 512.051164 299.873289 512.051164c-10.64215 0-19.237734-8.697911-19.237734-19.237734S289.231138 473.473369 299.873289 473.473369l168.227841 0L285.649645 274.34236c-7.265314-7.981613-6.753672-20.056361 1.22794-27.219346 7.981613-7.265314 20.056361-6.753672 27.219346 1.22794L512 464.263815l197.903068-216.015189c7.265314-7.981613 19.237734-8.390926 27.219346-1.22794 7.981613 7.265314 8.390926 19.237734 1.22794 27.219346L555.898871 473.473369l168.227841 0c10.64215 0 19.237734 8.697911 19.237734 19.237734s-8.697911 19.237734-19.237734 19.237734L531.237734 511.948836zM1013.409014 512.051164c0 276.491256-224.917758 501.409014-501.409014 501.409014s-501.409014-224.917758-501.409014-501.409014 224.917758-501.409014 501.409014-501.409014S1013.409014 235.45758 1013.409014 512.051164zM955.593485 512.051164c0-244.667133-198.926352-443.593485-443.593485-443.593485S68.406515 267.281703 68.406515 512.051164s198.926352 443.593485 443.593485 443.593485S955.593485 756.718297 955.593485 512.051164z" /></svg>