<?xml version="1.0" standalone="no"?><!DOCTYPE svg PUBLIC "-//W3C//DTD SVG 1.1//EN" "http://www.w3.org/Graphics/SVG/1.1/DTD/svg11.dtd"><svg class="icon" width="200px" height="200.00px" viewBox="0 0 1024 1024" version="1.1" xmlns="http://www.w3.org/2000/svg"><path fill="#9b896d" d="M877.226667 996.693333H146.773333C64.853333 996.693333 0 931.84 0 853.333333V423.253333c0-78.506667 68.266667-139.946667 153.6-139.946666h716.8c85.333333 0 153.6 61.44 153.6 136.533333v426.666667c0 81.92-68.266667 150.186667-146.773333 150.186666zM153.6 314.026667C88.746667 314.026667 34.133333 361.813333 34.133333 423.253333V853.333333c0 61.44 51.2 112.64 112.64 112.64h730.453334c58.026667 0 112.64-54.613333 112.64-119.466666V416.426667c0-64.853333-61.44-102.4-119.466667-102.4h-716.8z"  /><path fill="#9b896d" d="M1006.933333 791.893333h-170.666666c-81.92 0-153.6-71.68-153.6-153.6s71.68-153.6 153.6-153.6h170.666666c10.24 0 17.066667 6.826667 17.066667 17.066667v273.066667c0 10.24-6.826667 17.066667-17.066667 17.066666z m-170.666666-273.066666c-61.44 0-119.466667 58.026667-119.466667 119.466666s58.026667 119.466667 119.466667 119.466667H989.866667v-238.933333h-153.6zM853.333333 314.026667c-6.826667 0-13.653333-3.413333-17.066666-10.24L750.933333 116.053333c-10.24-23.893333-34.133333-40.96-64.853333-51.2-34.133333-10.24-71.68-6.826667-98.986667 6.826667l-443.733333 238.933333c-6.826667 6.826667-17.066667 3.413333-20.48-3.413333-3.413333-6.826667 0-17.066667 6.826667-23.893333l443.733333-238.933334c37.546667-20.48 85.333333-23.893333 126.293333-10.24 37.546667 13.653333 68.266667 37.546667 85.333334 68.266667l85.333333 187.733333c3.413333 10.24 0 17.066667-6.826667 23.893334H853.333333z"  /><path fill="#9b896d" d="M460.8 314.026667c-6.826667 0-10.24-3.413333-13.653333-10.24-3.413333-6.826667 0-17.066667 6.826666-23.893334l307.2-170.666666c6.826667-3.413333 17.066667 0 23.893334 6.826666 3.413333 6.826667 0 17.066667-6.826667 23.893334l-307.2 170.666666c-3.413333 3.413333-6.826667 3.413333-10.24 3.413334zM17.066667 440.32c-10.24 0-17.066667-6.826667-17.066667-17.066667v-37.546666c0-133.12 98.986667-238.933333 221.866667-238.933334H375.466667c10.24 0 17.066667 6.826667 17.066666 17.066667s-6.826667 13.653333-17.066666 13.653333H221.866667c-105.813333 0-187.733333 88.746667-187.733334 204.8v37.546667c0 10.24-6.826667 20.48-17.066666 20.48zM1006.933333 433.493333c-10.24 0-17.066667-6.826667-17.066666-17.066666V375.466667c0-112.64-81.92-194.56-187.733334-194.56-10.24-3.413333-17.066667-10.24-17.066666-20.48s6.826667-17.066667 17.066666-17.066667c126.293333 0 221.866667 98.986667 221.866667 228.693333v44.373334c0 10.24-6.826667 17.066667-17.066667 17.066666zM836.266667 689.493333c-27.306667 0-51.2-23.893333-51.2-51.2s23.893333-51.2 51.2-51.2 51.2 23.893333 51.2 51.2-23.893333 51.2-51.2 51.2z m0-68.266666c-10.24 0-17.066667 6.826667-17.066667 17.066666s6.826667 17.066667 17.066667 17.066667 17.066667-6.826667 17.066666-17.066667-6.826667-17.066667-17.066666-17.066666z"  /></svg>